<mxfile host="app.diagrams.net" modified="2022-04-16T10:40:19.974Z" agent="5.0 (X11)" etag="Mj9soYnjABytVadXmqBD" version="17.4.5" type="github">
  <diagram id="DV5vfjEKdpcPcG9oqdHT" name="Page-1">
    <mxGraphModel dx="803" dy="466" grid="1" gridSize="10" guides="1" tooltips="1" connect="1" arrows="1" fold="1" page="1" pageScale="1" pageWidth="850" pageHeight="1100" math="0" shadow="0">
      <root>
        <mxCell id="0" />
        <mxCell id="1" parent="0" />
        <mxCell id="Tq9iiBiDWfjPAQlPNNGn-3" value="" style="edgeStyle=orthogonalEdgeStyle;rounded=0;orthogonalLoop=1;jettySize=auto;html=1;" edge="1" parent="1" source="Tq9iiBiDWfjPAQlPNNGn-1" target="Tq9iiBiDWfjPAQlPNNGn-2">
          <mxGeometry relative="1" as="geometry" />
        </mxCell>
        <mxCell id="Tq9iiBiDWfjPAQlPNNGn-1" value="MLIRContext" style="rounded=0;whiteSpace=wrap;html=1;fillColor=default;" vertex="1" parent="1">
          <mxGeometry x="100" y="180" width="120" height="60" as="geometry" />
        </mxCell>
        <mxCell id="Tq9iiBiDWfjPAQlPNNGn-2" value="MLIRContextImpl" style="rounded=0;whiteSpace=wrap;html=1;" vertex="1" parent="1">
          <mxGeometry x="100" y="320" width="120" height="60" as="geometry" />
        </mxCell>
      </root>
    </mxGraphModel>
  </diagram>
</mxfile>
